<svg xmlns="http://www.w3.org/2000/svg" xmlns:xlink="http://www.w3.org/1999/xlink" width="500" zoomAndPan="magnify" viewBox="0 0 375 374.999991" height="500" preserveAspectRatio="xMidYMid meet" version="1.0"><defs><clipPath id="51fb25e9e0"><path d="M 37.5 97.242188 L 141 97.242188 L 141 309 L 37.5 309 Z M 37.5 97.242188 " clip-rule="nonzero"/></clipPath><clipPath id="677e6e2c19"><path d="M 234 97.242188 L 337.710938 97.242188 L 337.710938 309 L 234 309 Z M 234 97.242188 " clip-rule="nonzero"/></clipPath><clipPath id="c4c7d4b2de"><path d="M 90.710938 97.242188 L 284.289062 97.242188 L 284.289062 290.820312 L 90.710938 290.820312 Z M 90.710938 97.242188 " clip-rule="nonzero"/></clipPath><clipPath id="2d4f512efa"><path d="M 187.5 97.242188 C 134.042969 97.242188 90.710938 140.578125 90.710938 194.03125 C 90.710938 247.488281 134.042969 290.820312 187.5 290.820312 C 240.957031 290.820312 284.289062 247.488281 284.289062 194.03125 C 284.289062 140.578125 240.957031 97.242188 187.5 97.242188 Z M 187.5 97.242188 " clip-rule="nonzero"/></clipPath><clipPath id="07275ee972"><path d="M 150.875 112.609375 L 224 112.609375 L 224 224.777344 L 150.875 224.777344 Z M 150.875 112.609375 " clip-rule="nonzero"/></clipPath><clipPath id="2b612b2bee"><path d="M 188 210.382812 L 290 210.382812 L 290 247 L 188 247 Z M 188 210.382812 " clip-rule="nonzero"/></clipPath><clipPath id="7ae5009f3c"><path d="M 88 210.382812 L 190 210.382812 L 190 247 L 88 247 Z M 88 210.382812 " clip-rule="nonzero"/></clipPath><clipPath id="c69b76f2b9"><path d="M 76.433594 246 L 296.367188 246 L 296.367188 255 L 76.433594 255 Z M 76.433594 246 " clip-rule="nonzero"/></clipPath><clipPath id="5f2ece407a"><path d="M 165 250 L 212 250 L 212 259.871094 L 165 259.871094 Z M 165 250 " clip-rule="nonzero"/></clipPath><clipPath id="72f131df66"><path d="M 77.6875 256.59375 L 297.292969 256.59375 L 297.292969 329.171875 L 77.6875 329.171875 Z M 77.6875 256.59375 " clip-rule="nonzero"/></clipPath><clipPath id="11a6a43bfc"><path d="M 91 290.714844 L 284 290.714844 L 284 320.40625 L 91 320.40625 Z M 91 290.714844 " clip-rule="nonzero"/></clipPath><clipPath id="fe88a2d6ed"><path d="M 283.425781 314.605469 C 281.511719 312.800781 275.214844 313.171875 268.542969 313.5625 C 265.261719 313.753906 261.808594 313.957031 258.597656 313.914062 L 258.597656 318.804688 C 258.691406 318.707031 258.792969 318.617188 258.898438 318.527344 C 261.070312 316.757812 265.714844 317.703125 270.632812 318.707031 C 275.535156 319.710938 280.601562 320.742188 282.808594 318.941406 C 283.597656 318.296875 283.980469 317.308594 283.980469 315.921875 C 283.980469 315.390625 283.800781 314.960938 283.425781 314.605469 Z M 91.558594 315.058594 C 91.183594 315.414062 91.003906 315.84375 91.003906 316.375 C 91.003906 317.761719 91.386719 318.75 92.175781 319.394531 C 94.382812 321.199219 99.453125 320.164062 104.351562 319.164062 C 109.269531 318.15625 113.914062 317.210938 116.085938 318.984375 C 116.191406 319.070312 116.292969 319.160156 116.382812 319.257812 L 116.382812 314.363281 C 113.171875 314.410156 109.71875 314.207031 106.4375 314.019531 C 99.769531 313.625 93.46875 313.257812 91.558594 315.058594 Z M 103.40625 306.796875 C 103.40625 308.117188 103.753906 308.996094 104.464844 309.480469 C 106.597656 310.925781 111.945312 308.800781 116.664062 306.921875 C 121.632812 304.941406 126.332031 303.074219 128.496094 304.542969 C 128.589844 304.605469 128.675781 304.671875 128.757812 304.75 L 128.757812 290.976562 C 112.171875 294.894531 103.40625 300.359375 103.40625 306.796875 Z M 258.339844 306.683594 C 253.359375 304.617188 248.648438 302.664062 246.484375 304.109375 C 246.390625 304.171875 246.308594 304.238281 246.226562 304.308594 L 246.226562 290.96875 C 262.832031 294.886719 271.609375 300.351562 271.609375 306.796875 C 271.609375 308.109375 271.265625 308.976562 270.5625 309.449219 C 268.4375 310.867188 263.074219 308.644531 258.339844 306.683594 Z M 258.339844 306.683594 " clip-rule="nonzero"/></clipPath><clipPath id="c7db6d61bc"><path d="M 162.148438 45.550781 L 210.535156 45.550781 L 210.535156 91.738281 L 162.148438 91.738281 Z M 162.148438 45.550781 " clip-rule="nonzero"/></clipPath><clipPath id="60af0cc9e7"><path d="M 219.742188 75.128906 L 250.535156 75.128906 L 250.535156 103.722656 L 219.742188 103.722656 Z M 219.742188 75.128906 " clip-rule="nonzero"/></clipPath><clipPath id="2ec209ef7f"><path d="M 123.027344 75.128906 L 153.816406 75.128906 L 153.816406 103.722656 L 123.027344 103.722656 Z M 123.027344 75.128906 " clip-rule="nonzero"/></clipPath></defs><g clip-path="url(#51fb25e9e0)"><path fill="#00367d" d="M 139.542969 307.605469 C 134.453125 306.347656 129.605469 304.609375 124.996094 302.515625 C 124.933594 302.394531 124.875 302.277344 124.753906 302.15625 L 124.695312 302.097656 C 124.457031 293.835938 118.050781 285.214844 112.246094 279.828125 C 111.464844 279.109375 109.789062 279.527344 109.910156 280.785156 C 110.746094 287.488281 113.441406 294.015625 117.992188 298.984375 C 110.207031 294.613281 103.203125 289.105469 96.800781 282.699219 C 96.917969 282.519531 96.980469 282.28125 96.980469 282.042969 C 97.039062 276.476562 96.261719 271.085938 94.34375 265.820312 C 92.96875 262.046875 91.171875 257.078125 87.460938 255.105469 C 86.621094 254.683594 85.605469 255.222656 85.605469 256.179688 C 85.484375 262.707031 86.863281 269.230469 89.855469 274.976562 C 88.777344 273.722656 87.761719 272.402344 86.742188 271.085938 C 80.277344 262.585938 74.46875 253.308594 69.742188 243.609375 C 69.800781 243.488281 69.859375 243.308594 69.800781 243.128906 C 69.742188 242.953125 69.742188 242.773438 69.679688 242.59375 C 69.859375 242.53125 70.101562 242.414062 70.21875 242.171875 C 76.207031 233.3125 75.25 220.144531 72.554688 210.324219 C 72.253906 209.1875 70.757812 209.128906 70.160156 210.027344 C 64.652344 218.046875 64.59375 227.265625 66.386719 236.246094 C 63.214844 228.761719 60.761719 220.980469 59.203125 213.019531 C 58.546875 209.667969 58.066406 206.316406 57.828125 203.023438 C 58.007812 203.023438 58.246094 202.960938 58.425781 202.84375 C 67.226562 197.515625 72.136719 185.660156 73.511719 175.902344 C 73.691406 174.648438 72.316406 173.570312 71.238281 174.585938 C 65.132812 180.453125 60.34375 187.457031 57.527344 195.359375 C 57.707031 182.847656 60.640625 170.816406 65.550781 159.382812 C 65.730469 159.5625 66.03125 159.679688 66.328125 159.679688 C 76.625 159.203125 86.382812 150.164062 91.589844 141.902344 C 92.191406 140.941406 91.171875 139.566406 90.09375 139.925781 C 82.613281 142.441406 75.726562 146.03125 69.621094 150.941406 C 75.25 140.164062 82.433594 130.046875 90.453125 120.769531 L 90.515625 120.769531 C 95.601562 118.253906 101.527344 116.160156 105.660156 112.148438 C 109.191406 108.675781 111.105469 103.949219 112.960938 99.457031 C 113.5625 98.019531 111.765625 97.242188 110.6875 97.902344 C 110.566406 97.839844 110.507812 97.839844 110.328125 97.839844 C 105.71875 98.378906 101.648438 100.175781 98.296875 103.410156 C 94.644531 107 92.910156 111.847656 90.214844 116.101562 C 84.046875 122.746094 78.421875 130.109375 73.511719 137.949219 C 74.949219 126.875 76.804688 115.023438 73.929688 104.128906 C 73.570312 102.808594 71.957031 102.808594 71.296875 103.769531 C 63.277344 115.023438 62.378906 131.066406 70.820312 142.378906 C 65.492188 151.597656 61.300781 161.476562 58.605469 171.535156 C 58.367188 167.222656 58.007812 162.972656 57.527344 158.722656 C 57.230469 155.910156 57.828125 150.28125 55.375 148.304688 C 54.894531 147.886719 54.234375 147.769531 53.699219 148.066406 C 44.417969 153.695312 48.429688 175.125 56.453125 180.152344 C 56.511719 180.214844 56.570312 180.214844 56.691406 180.214844 C 55.3125 187.996094 54.835938 195.839844 55.492188 203.742188 L 55.492188 203.800781 C 55.492188 203.921875 55.492188 204.039062 55.554688 204.160156 C 55.792969 206.972656 56.152344 209.726562 56.691406 212.539062 C 57.050781 214.515625 57.527344 216.429688 58.007812 218.347656 C 55.851562 214.695312 53.160156 211.042969 50.644531 207.871094 C 47.710938 204.160156 44.238281 201.226562 39.570312 199.96875 C 38.492188 199.667969 37.652344 200.628906 37.832031 201.703125 C 40.109375 212.480469 48.25 221.878906 59.023438 224.8125 C 59.324219 224.871094 59.5625 224.8125 59.742188 224.691406 C 63.035156 235.410156 67.824219 245.824219 73.570312 255.523438 C 71.238281 253.605469 68.78125 251.871094 66.148438 250.433594 C 62.617188 248.457031 57.648438 245.40625 53.519531 246.722656 C 52.800781 246.960938 52.261719 247.742188 52.5 248.457031 C 56.03125 259.355469 67.167969 266.359375 78.421875 263.304688 L 78.480469 263.304688 C 80.933594 267.015625 83.570312 270.609375 86.261719 274.019531 C 90.515625 279.46875 95.304688 284.734375 100.570312 289.464844 C 93.984375 286.113281 85.722656 285.335938 78.839844 286.054688 C 77.703125 286.171875 76.984375 287.488281 77.882812 288.386719 C 85.367188 295.8125 96.738281 298.804688 106.738281 294.914062 C 106.855469 294.851562 106.917969 294.792969 106.976562 294.734375 C 116.496094 301.917969 127.328125 307.183594 139.300781 308.859375 C 140.019531 309.101562 140.441406 307.84375 139.542969 307.605469 Z M 99.792969 106.042969 C 99.613281 106.402344 99.492188 106.699219 99.3125 107.058594 C 98.894531 107.417969 98.476562 107.777344 98.054688 108.199219 C 98.59375 107.417969 99.195312 106.699219 99.792969 106.042969 Z M 99.792969 106.042969 " fill-opacity="1" fill-rule="nonzero"/></g><g clip-path="url(#677e6e2c19)"><path fill="#00367d" d="M 235.625 308.980469 C 247.597656 307.304688 258.433594 302.035156 267.949219 294.851562 C 268.011719 294.914062 268.128906 294.972656 268.191406 295.03125 C 278.1875 298.925781 289.5625 295.929688 297.042969 288.507812 C 297.941406 287.609375 297.222656 286.292969 296.085938 286.171875 C 289.261719 285.515625 280.941406 286.292969 274.355469 289.585938 C 279.625 284.855469 284.414062 279.648438 288.664062 274.140625 C 291.355469 270.667969 293.929688 267.078125 296.445312 263.425781 L 296.503906 263.425781 C 307.757812 266.417969 318.894531 259.472656 322.425781 248.578125 C 322.664062 247.800781 322.125 247.082031 321.410156 246.84375 C 317.277344 245.464844 312.308594 248.519531 308.777344 250.554688 C 306.144531 252.050781 303.6875 253.726562 301.355469 255.640625 C 307.101562 245.882812 311.890625 235.527344 315.183594 224.8125 C 315.363281 224.933594 315.601562 224.992188 315.902344 224.933594 C 326.675781 222 334.816406 212.601562 337.09375 201.824219 C 337.332031 200.808594 336.433594 199.847656 335.355469 200.089844 C 330.6875 201.285156 327.273438 204.21875 324.28125 207.992188 C 321.769531 211.164062 319.074219 214.816406 316.917969 218.46875 C 317.398438 216.550781 317.816406 214.574219 318.234375 212.660156 C 318.773438 209.847656 319.132812 207.09375 319.375 204.277344 C 319.433594 204.160156 319.433594 204.039062 319.433594 203.921875 L 319.433594 203.859375 C 320.089844 196.019531 319.613281 188.117188 318.234375 180.332031 C 318.296875 180.332031 318.355469 180.273438 318.476562 180.273438 C 326.496094 175.246094 330.507812 153.8125 321.230469 148.1875 C 320.691406 147.828125 320.03125 148.007812 319.550781 148.425781 C 317.097656 150.460938 317.695312 156.027344 317.398438 158.84375 C 316.917969 163.09375 316.558594 167.402344 316.320312 171.652344 C 313.625 161.535156 309.375 151.71875 304.109375 142.5 C 312.546875 131.183594 311.652344 115.140625 303.628906 103.828125 C 302.96875 102.871094 301.292969 102.871094 300.996094 104.1875 C 298.121094 115.082031 299.976562 126.933594 301.414062 138.011719 C 296.503906 130.167969 290.878906 122.804688 284.652344 116.101562 C 282.019531 111.847656 280.28125 107 276.570312 103.410156 C 273.21875 100.175781 269.148438 98.378906 264.539062 97.839844 C 264.417969 97.839844 264.296875 97.839844 264.179688 97.902344 C 263.101562 97.242188 261.363281 98.019531 261.902344 99.457031 C 263.757812 103.949219 265.675781 108.675781 269.207031 112.148438 C 273.335938 116.160156 279.265625 118.253906 284.351562 120.769531 L 284.414062 120.769531 C 292.433594 130.046875 299.617188 140.164062 305.246094 150.941406 C 299.140625 146.03125 292.253906 142.441406 284.773438 139.925781 C 283.632812 139.566406 282.675781 140.941406 283.273438 141.902344 C 288.421875 150.101562 298.242188 159.203125 308.539062 159.679688 C 308.835938 159.679688 309.078125 159.5625 309.316406 159.382812 C 314.164062 170.816406 317.15625 182.847656 317.335938 195.359375 C 314.523438 187.457031 309.734375 180.453125 303.628906 174.585938 C 302.550781 173.570312 301.175781 174.648438 301.355469 175.902344 C 302.730469 185.660156 307.640625 197.515625 316.441406 202.84375 C 316.679688 202.960938 316.859375 203.023438 317.039062 203.023438 C 316.800781 206.316406 316.320312 209.667969 315.660156 213.019531 C 314.046875 220.921875 311.589844 228.703125 308.476562 236.246094 C 310.273438 227.207031 310.214844 218.046875 304.707031 210.027344 C 304.109375 209.128906 302.609375 209.1875 302.3125 210.324219 C 299.617188 220.144531 298.660156 233.371094 304.648438 242.171875 C 304.828125 242.414062 305.003906 242.53125 305.183594 242.59375 C 305.125 242.773438 305.125 242.953125 305.066406 243.128906 C 305.003906 243.308594 305.066406 243.488281 305.125 243.609375 C 300.394531 253.367188 294.53125 262.585938 288.125 271.085938 C 287.105469 272.402344 286.089844 273.722656 285.011719 274.976562 C 287.945312 269.230469 289.320312 262.707031 289.261719 256.179688 C 289.261719 255.222656 288.242188 254.683594 287.40625 255.105469 C 283.753906 257.078125 281.957031 262.046875 280.523438 265.820312 C 278.605469 271.027344 277.828125 276.476562 277.886719 282.042969 C 277.886719 282.28125 277.949219 282.519531 278.066406 282.699219 C 271.722656 289.105469 264.65625 294.613281 256.875 298.984375 C 261.425781 294.015625 264.179688 287.488281 264.957031 280.785156 C 265.136719 279.527344 263.402344 279.109375 262.621094 279.828125 C 256.816406 285.214844 250.410156 293.835938 250.171875 302.097656 L 250.109375 302.15625 C 249.992188 302.277344 249.929688 302.394531 249.871094 302.515625 C 245.261719 304.609375 240.414062 306.289062 235.324219 307.605469 C 234.304688 307.84375 234.726562 309.101562 235.625 308.980469 Z M 276.691406 108.136719 C 276.269531 107.777344 275.851562 107.417969 275.433594 107 C 275.253906 106.640625 275.132812 106.34375 274.953125 106.042969 C 275.554688 106.699219 276.152344 107.417969 276.691406 108.136719 Z M 276.691406 108.136719 " fill-opacity="1" fill-rule="nonzero"/></g><g clip-path="url(#c4c7d4b2de)"><g clip-path="url(#2d4f512efa)"><path fill="#00367d" d="M 90.710938 97.242188 L 284.289062 97.242188 L 284.289062 290.820312 L 90.710938 290.820312 Z M 90.710938 97.242188 " fill-opacity="1" fill-rule="nonzero"/></g></g><g clip-path="url(#07275ee972)"><path fill="#fcd6a8" d="M 223.425781 179.605469 C 223.308594 179.410156 211.734375 159.804688 210.230469 135.664062 L 210.140625 134.242188 L 208.726562 134.429688 C 203.28125 135.160156 197.3125 135.589844 190.992188 135.707031 L 189.6875 135.730469 L 189.6875 157.175781 L 190.554688 157.5 C 194.03125 158.78125 196.367188 162.132812 196.367188 165.835938 C 196.367188 169.539062 194.03125 172.890625 190.554688 174.167969 L 189.6875 174.492188 L 189.6875 225.125 L 192.171875 220.71875 C 192.296875 220.496094 204.949219 198.277344 223.1875 181.257812 L 223.972656 180.523438 Z M 192.34375 215.296875 L 192.34375 176.300781 C 196.375 174.425781 199.027344 170.332031 199.027344 165.832031 C 199.027344 161.335938 196.378906 157.242188 192.34375 155.363281 L 192.34375 138.335938 C 197.753906 138.199219 202.898438 137.832031 207.675781 137.246094 C 209.335938 158.371094 218.324219 175.875 220.613281 180.03125 C 207.195312 192.765625 196.863281 208.097656 192.34375 215.296875 Z M 166.246094 134.429688 L 164.832031 134.242188 L 164.746094 135.664062 C 163.238281 159.777344 151.664062 179.40625 151.546875 179.605469 L 150.996094 180.523438 L 151.78125 181.257812 C 170.015625 198.273438 182.675781 220.496094 182.800781 220.71875 L 185.285156 225.117188 L 185.285156 174.488281 L 184.414062 174.167969 C 180.941406 172.886719 178.601562 169.539062 178.601562 165.832031 C 178.601562 162.128906 180.9375 158.777344 184.414062 157.496094 L 185.285156 157.171875 L 185.285156 135.730469 L 183.980469 135.707031 C 177.660156 135.589844 171.691406 135.160156 166.246094 134.429688 Z M 182.628906 155.367188 C 178.597656 157.238281 175.945312 161.335938 175.945312 165.835938 C 175.945312 170.335938 178.59375 174.425781 182.628906 176.304688 L 182.628906 215.300781 C 178.113281 208.101562 167.777344 192.765625 154.363281 180.03125 C 156.652344 175.875 165.640625 158.371094 167.300781 137.246094 C 172.078125 137.832031 177.222656 138.199219 182.632812 138.335938 L 182.632812 155.367188 Z M 209.082031 130.085938 L 210.230469 129.933594 L 210.230469 115.269531 L 217.957031 115.269531 L 217.957031 112.609375 L 157.015625 112.609375 L 157.015625 115.269531 L 164.742188 115.269531 L 164.742188 129.929688 L 165.894531 130.085938 C 171.441406 130.828125 177.507812 131.265625 183.929688 131.386719 C 185.039062 131.410156 186.238281 131.421875 187.488281 131.421875 C 188.738281 131.421875 189.9375 131.410156 191.042969 131.386719 C 197.464844 131.265625 203.535156 130.828125 209.082031 130.085938 Z M 187.488281 128.765625 C 186.253906 128.765625 185.078125 128.753906 183.980469 128.730469 C 178.101562 128.621094 172.53125 128.242188 167.398438 127.601562 L 167.398438 115.269531 L 207.574219 115.269531 L 207.574219 127.601562 C 202.441406 128.242188 196.871094 128.621094 190.984375 128.730469 C 189.894531 128.753906 188.71875 128.765625 187.488281 128.765625 Z M 187.488281 128.765625 " fill-opacity="1" fill-rule="nonzero"/></g><g clip-path="url(#2b612b2bee)"><path fill="#fde3b7" d="M 188.5 234.804688 C 188.5 234.804688 201.820312 211.328125 277.914062 210.429688 L 289.445312 237.121094 C 289.445312 237.121094 218.550781 243.054688 188.5 246.082031 L 188.5 234.804688 " fill-opacity="1" fill-rule="nonzero"/></g><g clip-path="url(#7ae5009f3c)"><path fill="#fde3b7" d="M 189.417969 234.804688 C 189.417969 234.804688 176.078125 211.328125 99.996094 210.429688 L 88.472656 237.121094 C 88.472656 237.121094 159.378906 243.054688 189.417969 246.082031 L 189.417969 234.804688 " fill-opacity="1" fill-rule="nonzero"/></g><g clip-path="url(#c69b76f2b9)"><path fill="#f9ad30" d="M 296.417969 254.664062 L 76.46875 254.664062 L 76.46875 246.082031 L 296.421875 246.082031 L 296.421875 254.664062 " fill-opacity="1" fill-rule="nonzero"/></g><g clip-path="url(#5f2ece407a)"><path fill="#f9ad30" d="M 211.835938 259.824219 L 165.175781 259.824219 L 165.175781 250.371094 L 211.835938 250.371094 L 211.835938 259.824219 " fill-opacity="1" fill-rule="nonzero"/></g><path fill="#fcd6a8" d="M 292.382812 246.082031 L 285.777344 225.910156 C 285.777344 225.910156 264.289062 216.566406 223.953125 227.023438 C 205.203125 231.878906 188.5 240.921875 188.5 240.921875 C 188.5 240.921875 171.492188 229.714844 150.546875 227.425781 C 120.253906 224.117188 92.570312 225.910156 92.570312 225.910156 L 83.023438 246.082031 L 171.503906 246.082031 L 171.503906 250.371094 L 203.90625 250.371094 L 203.90625 246.082031 L 292.382812 246.082031 " fill-opacity="1" fill-rule="nonzero"/><g clip-path="url(#72f131df66)"><path fill="#fde3b7" d="M 297.214844 322.605469 L 291.398438 312.035156 L 297.21875 300.792969 C 297.25 300.726562 297.269531 300.65625 297.269531 300.582031 C 297.269531 300.167969 297.109375 299.820312 296.804688 299.574219 C 295.789062 298.761719 293.394531 299.210938 289.863281 299.992188 C 288.128906 300.378906 285.226562 301.019531 284.894531 300.582031 L 284.894531 285.921875 C 284.894531 285.507812 284.734375 285.160156 284.429688 284.914062 C 283.414062 284.101562 281.023438 284.550781 277.488281 285.332031 C 275.753906 285.71875 272.851562 286.359375 272.519531 285.921875 L 272.519531 278.960938 C 272.519531 263.59375 228.453125 256.59375 187.507812 256.59375 C 146.5625 256.59375 102.496094 263.59375 102.496094 278.960938 L 102.496094 286.242188 C 102.476562 286.292969 102.464844 286.34375 102.464844 286.398438 C 102.128906 286.8125 99.230469 286.171875 97.496094 285.789062 C 93.960938 285.003906 91.570312 284.554688 90.554688 285.371094 C 90.25 285.613281 90.089844 285.964844 90.089844 286.375 L 90.089844 301.058594 C 89.753906 301.472656 86.855469 300.832031 85.121094 300.449219 C 81.585938 299.664062 79.195312 299.214844 78.183594 300.03125 C 77.875 300.273438 77.714844 300.625 77.714844 301.035156 C 77.714844 301.109375 77.734375 301.179688 77.765625 301.246094 L 83.585938 312.488281 L 77.757812 323.085938 C 77.671875 323.269531 77.589844 323.644531 78.003906 324.082031 C 79.90625 326.089844 92.898438 329.46875 103.332031 329.46875 C 106.867188 329.46875 110.109375 329.078125 112.527344 328.117188 C 115.691406 326.855469 117.296875 324.769531 117.296875 321.910156 L 117.296875 314.34375 C 121.832031 314.210938 125.785156 313.511719 127.925781 311.492188 C 129.085938 310.402344 129.671875 308.976562 129.671875 307.25 L 129.671875 290.847656 C 129.671875 290.816406 129.660156 290.792969 129.65625 290.765625 C 144.9375 287.265625 165.476562 285.339844 187.507812 285.339844 C 209.515625 285.339844 230.03125 287.261719 245.3125 290.757812 L 245.3125 306.796875 C 245.3125 308.523438 245.898438 309.949219 247.054688 311.039062 C 249.199219 313.058594 253.152344 313.757812 257.6875 313.890625 L 257.6875 321.457031 C 257.6875 324.316406 259.292969 326.402344 262.457031 327.664062 C 264.875 328.628906 268.117188 329.015625 271.652344 329.015625 C 282.085938 329.015625 295.078125 325.632812 296.980469 323.625 C 297.394531 323.191406 297.3125 322.816406 297.214844 322.605469 " fill-opacity="1" fill-rule="nonzero"/><path fill="#00367d" d="M 284.964844 326.691406 C 277.445312 328.191406 270.433594 328.535156 265.726562 327.640625 C 261 326.742188 258.597656 324.660156 258.597656 321.457031 C 258.597656 320.445312 258.886719 319.714844 259.476562 319.234375 C 261.3125 317.734375 265.957031 318.6875 270.449219 319.601562 C 275.558594 320.644531 280.839844 321.722656 283.382812 319.648438 C 284.386719 318.832031 284.894531 317.578125 284.894531 315.921875 L 284.894531 301.570312 C 285.871094 301.78125 287.589844 301.429688 290.058594 300.882812 C 292.347656 300.378906 295.480469 299.683594 296.230469 300.289062 C 296.28125 300.328125 296.332031 300.378906 296.347656 300.488281 L 290.476562 311.832031 C 290.40625 311.96875 290.40625 312.128906 290.480469 312.261719 L 296.363281 322.953125 C 295.929688 323.65625 291.746094 325.339844 284.964844 326.691406 Z M 268.542969 313.5625 C 275.214844 313.171875 281.511719 312.800781 283.425781 314.605469 C 283.800781 314.960938 283.980469 315.390625 283.980469 315.921875 C 283.980469 317.308594 283.597656 318.296875 282.808594 318.941406 C 280.601562 320.742188 275.535156 319.710938 270.632812 318.707031 C 265.714844 317.703125 261.070312 316.757812 258.898438 318.527344 C 258.792969 318.617188 258.691406 318.707031 258.597656 318.804688 L 258.597656 313.914062 C 261.808594 313.957031 265.261719 313.753906 268.542969 313.5625 Z M 246.226562 306.796875 C 246.226562 305.84375 246.476562 305.210938 246.992188 304.871094 C 248.75 303.695312 253.449219 305.644531 257.992188 307.527344 C 262.046875 309.207031 265.929688 310.816406 268.691406 310.816406 C 269.625 310.816406 270.429688 310.632812 271.070312 310.207031 C 272.03125 309.5625 272.519531 308.417969 272.519531 306.796875 L 272.519531 286.910156 C 273.496094 287.125 275.214844 286.769531 277.6875 286.222656 C 279.972656 285.71875 283.109375 285.027344 283.855469 285.628906 C 283.921875 285.679688 283.980469 285.75 283.980469 285.921875 L 283.980469 313.878906 C 281.726562 311.875 275.585938 312.238281 268.492188 312.652344 C 260.375 313.128906 251.171875 313.667969 247.683594 310.378906 C 246.703125 309.453125 246.226562 308.28125 246.226562 306.796875 Z M 103.40625 303.085938 L 103.40625 278.960938 C 103.40625 272.429688 112.421875 266.902344 129.476562 262.972656 C 144.78125 259.445312 165.390625 257.507812 187.507812 257.507812 C 209.625 257.507812 230.234375 259.445312 245.539062 262.972656 C 262.59375 266.902344 271.609375 272.429688 271.609375 278.960938 L 271.609375 303.085938 C 268.703125 297.367188 259.074219 293.035156 245.972656 289.988281 C 245.910156 289.957031 245.84375 289.9375 245.769531 289.9375 C 245.761719 289.9375 245.761719 289.9375 245.757812 289.9375 C 229.574219 286.207031 208.144531 284.425781 187.507812 284.425781 C 150.015625 284.425781 109.90625 290.296875 103.40625 303.085938 Z M 127.300781 310.832031 C 123.8125 314.121094 114.613281 313.582031 106.492188 313.105469 C 99.394531 312.691406 93.253906 312.332031 91.003906 314.332031 L 91.003906 286.375 C 91.003906 286.207031 91.0625 286.132812 91.125 286.082031 C 91.875 285.480469 95.011719 286.171875 97.300781 286.679688 C 99.796875 287.230469 101.523438 287.585938 102.496094 287.355469 L 102.496094 306.796875 C 102.496094 308.421875 102.984375 309.578125 103.953125 310.234375 C 104.605469 310.675781 105.441406 310.863281 106.414062 310.863281 C 109.222656 310.863281 113.160156 309.296875 117 307.769531 C 121.53125 305.964844 126.21875 304.101562 127.980469 305.296875 C 128.503906 305.652344 128.757812 306.289062 128.757812 307.25 C 128.757812 308.734375 128.28125 309.90625 127.300781 310.832031 Z M 116.382812 319.257812 C 116.292969 319.164062 116.191406 319.070312 116.085938 318.984375 C 113.914062 317.210938 109.269531 318.15625 104.351562 319.164062 C 99.453125 320.164062 94.382812 321.199219 92.175781 319.394531 C 91.386719 318.75 91.003906 317.761719 91.003906 316.375 C 91.003906 315.84375 91.183594 315.414062 91.558594 315.058594 C 93.46875 313.257812 99.769531 313.625 106.4375 314.019531 C 109.71875 314.207031 113.171875 314.410156 116.382812 314.363281 Z M 109.253906 328.09375 C 104.546875 328.988281 97.535156 328.644531 90.019531 327.144531 C 83.242188 325.796875 79.058594 324.109375 78.621094 323.410156 L 84.503906 312.714844 C 84.578125 312.582031 84.578125 312.421875 84.507812 312.285156 L 78.636719 300.941406 C 78.652344 300.835938 78.703125 300.78125 78.753906 300.742188 C 79.503906 300.140625 82.636719 300.832031 84.925781 301.339844 C 87.394531 301.886719 89.113281 302.238281 90.089844 302.023438 L 90.089844 316.375 C 90.089844 318.03125 90.597656 319.285156 91.601562 320.101562 C 94.140625 322.179688 99.425781 321.097656 104.535156 320.054688 C 109.027344 319.136719 113.671875 318.191406 115.507812 319.6875 C 116.097656 320.171875 116.382812 320.898438 116.382812 321.910156 C 116.382812 325.113281 113.984375 327.195312 109.253906 328.09375 Z M 128.757812 304.75 C 128.675781 304.671875 128.589844 304.605469 128.496094 304.542969 C 126.332031 303.074219 121.632812 304.941406 116.664062 306.921875 C 111.945312 308.800781 106.597656 310.925781 104.464844 309.480469 C 103.753906 308.996094 103.40625 308.117188 103.40625 306.796875 C 103.40625 300.359375 112.171875 294.894531 128.757812 290.976562 Z M 246.226562 290.96875 C 262.832031 294.886719 271.609375 300.351562 271.609375 306.796875 C 271.609375 308.109375 271.265625 308.976562 270.5625 309.449219 C 268.4375 310.867188 263.074219 308.644531 258.339844 306.683594 C 253.359375 304.617188 248.648438 302.664062 246.484375 304.109375 C 246.390625 304.171875 246.308594 304.238281 246.226562 304.308594 Z M 297.214844 322.605469 L 291.398438 312.035156 L 297.21875 300.792969 C 297.25 300.726562 297.269531 300.65625 297.269531 300.582031 C 297.269531 300.167969 297.109375 299.820312 296.804688 299.574219 C 295.789062 298.761719 293.394531 299.210938 289.863281 299.992188 C 288.128906 300.378906 285.226562 301.019531 284.894531 300.582031 L 284.894531 285.921875 C 284.894531 285.507812 284.734375 285.160156 284.429688 284.914062 C 283.414062 284.101562 281.023438 284.550781 277.488281 285.332031 C 275.753906 285.71875 272.851562 286.359375 272.519531 285.921875 L 272.519531 278.960938 C 272.519531 263.59375 228.453125 256.59375 187.507812 256.59375 C 146.5625 256.59375 102.496094 263.59375 102.496094 278.960938 L 102.496094 286.242188 C 102.476562 286.292969 102.464844 286.34375 102.464844 286.398438 C 102.128906 286.8125 99.230469 286.171875 97.496094 285.789062 C 93.960938 285.003906 91.570312 284.554688 90.554688 285.371094 C 90.25 285.613281 90.089844 285.964844 90.089844 286.375 L 90.089844 301.058594 C 89.753906 301.472656 86.855469 300.832031 85.121094 300.449219 C 81.585938 299.664062 79.195312 299.214844 78.183594 300.03125 C 77.875 300.273438 77.714844 300.625 77.714844 301.035156 C 77.714844 301.109375 77.734375 301.179688 77.765625 301.246094 L 83.585938 312.488281 L 77.757812 323.085938 C 77.671875 323.269531 77.589844 323.644531 78.003906 324.082031 C 79.90625 326.089844 92.898438 329.46875 103.332031 329.46875 C 106.867188 329.46875 110.109375 329.078125 112.527344 328.117188 C 115.691406 326.855469 117.296875 324.769531 117.296875 321.910156 L 117.296875 314.34375 C 121.832031 314.210938 125.785156 313.511719 127.925781 311.492188 C 129.085938 310.402344 129.671875 308.976562 129.671875 307.25 L 129.671875 290.847656 C 129.671875 290.816406 129.660156 290.792969 129.65625 290.765625 C 144.9375 287.265625 165.476562 285.339844 187.507812 285.339844 C 209.515625 285.339844 230.03125 287.261719 245.3125 290.757812 L 245.3125 306.796875 C 245.3125 308.523438 245.898438 309.949219 247.054688 311.039062 C 249.199219 313.058594 253.152344 313.757812 257.6875 313.890625 L 257.6875 321.457031 C 257.6875 324.316406 259.292969 326.402344 262.457031 327.664062 C 264.875 328.628906 268.117188 329.015625 271.652344 329.015625 C 282.085938 329.015625 295.078125 325.632812 296.980469 323.625 C 297.394531 323.191406 297.3125 322.816406 297.214844 322.605469 " fill-opacity="1" fill-rule="nonzero"/></g><g clip-path="url(#11a6a43bfc)"><g clip-path="url(#fe88a2d6ed)"><path fill="#00367d" d="M 86.8125 338.484375 L 87.289062 338.484375 L 87.289062 274.445312 L 86.8125 274.445312 Z M 88.25 338.484375 L 88.730469 338.484375 L 88.730469 274.445312 L 88.25 274.445312 Z M 89.691406 338.484375 L 90.171875 338.484375 L 90.171875 274.445312 L 89.691406 274.445312 Z M 91.132812 338.484375 L 91.613281 338.484375 L 91.613281 274.445312 L 91.132812 274.445312 Z M 92.570312 338.484375 L 93.050781 338.484375 L 93.050781 274.445312 L 92.570312 274.445312 Z M 94.011719 338.484375 L 94.492188 338.484375 L 94.492188 274.445312 L 94.011719 274.445312 Z M 95.449219 338.484375 L 95.929688 338.484375 L 95.929688 274.445312 L 95.449219 274.445312 Z M 96.890625 338.484375 L 97.371094 338.484375 L 97.371094 274.445312 L 96.890625 274.445312 Z M 98.332031 338.484375 L 98.8125 338.484375 L 98.8125 274.445312 L 98.332031 274.445312 Z M 99.769531 338.484375 L 100.25 338.484375 L 100.25 274.445312 L 99.769531 274.445312 Z M 101.210938 338.484375 L 101.691406 338.484375 L 101.691406 274.445312 L 101.210938 274.445312 Z M 102.652344 338.484375 L 103.132812 338.484375 L 103.132812 274.445312 L 102.652344 274.445312 Z M 104.09375 338.484375 L 104.570312 338.484375 L 104.570312 274.445312 L 104.09375 274.445312 Z M 105.53125 338.484375 L 106.011719 338.484375 L 106.011719 274.445312 L 105.53125 274.445312 Z M 106.972656 338.484375 L 107.449219 338.484375 L 107.449219 274.445312 L 106.972656 274.445312 Z M 108.410156 338.484375 L 108.890625 338.484375 L 108.890625 274.445312 L 108.410156 274.445312 Z M 109.851562 338.484375 L 110.332031 338.484375 L 110.332031 274.445312 L 109.851562 274.445312 Z M 111.292969 338.484375 L 111.769531 338.484375 L 111.769531 274.445312 L 111.292969 274.445312 Z M 112.730469 338.484375 L 113.210938 338.484375 L 113.210938 274.445312 L 112.730469 274.445312 Z M 114.171875 338.484375 L 114.652344 338.484375 L 114.652344 274.445312 L 114.171875 274.445312 Z M 115.609375 338.484375 L 116.089844 338.484375 L 116.089844 274.445312 L 115.609375 274.445312 Z M 117.050781 338.484375 L 117.53125 338.484375 L 117.53125 274.445312 L 117.050781 274.445312 Z M 118.492188 338.484375 L 118.96875 338.484375 L 118.96875 274.445312 L 118.492188 274.445312 Z M 119.929688 338.484375 L 120.410156 338.484375 L 120.410156 274.445312 L 119.929688 274.445312 Z M 121.371094 338.484375 L 121.851562 338.484375 L 121.851562 274.445312 L 121.371094 274.445312 Z M 122.8125 338.484375 L 123.292969 338.484375 L 123.292969 274.445312 L 122.8125 274.445312 Z M 124.25 338.484375 L 124.730469 338.484375 L 124.730469 274.445312 L 124.25 274.445312 Z M 125.691406 338.484375 L 126.171875 338.484375 L 126.171875 274.445312 L 125.691406 274.445312 Z M 127.128906 338.484375 L 127.613281 338.484375 L 127.613281 274.445312 L 127.128906 274.445312 Z M 128.570312 338.484375 L 129.050781 338.484375 L 129.050781 274.445312 L 128.570312 274.445312 Z M 130.011719 338.484375 L 130.492188 338.484375 L 130.492188 274.445312 L 130.011719 274.445312 Z M 131.449219 338.484375 L 131.929688 338.484375 L 131.929688 274.445312 L 131.449219 274.445312 Z M 132.890625 338.484375 L 133.371094 338.484375 L 133.371094 274.445312 L 132.890625 274.445312 Z M 134.332031 338.484375 L 134.8125 338.484375 L 134.8125 274.445312 L 134.332031 274.445312 Z M 135.769531 338.484375 L 136.25 338.484375 L 136.25 274.445312 L 135.769531 274.445312 Z M 137.210938 338.484375 L 137.691406 338.484375 L 137.691406 274.445312 L 137.210938 274.445312 Z M 138.652344 338.484375 L 139.132812 338.484375 L 139.132812 274.445312 L 138.652344 274.445312 Z M 140.089844 338.484375 L 140.570312 338.484375 L 140.570312 274.445312 L 140.089844 274.445312 Z M 141.53125 338.484375 L 142.011719 338.484375 L 142.011719 274.445312 L 141.53125 274.445312 Z M 142.972656 338.484375 L 143.449219 338.484375 L 143.449219 274.445312 L 142.972656 274.445312 Z M 144.410156 338.484375 L 144.890625 338.484375 L 144.890625 274.445312 L 144.410156 274.445312 Z M 145.851562 338.484375 L 146.332031 338.484375 L 146.332031 274.445312 L 145.851562 274.445312 Z M 147.289062 338.484375 L 147.769531 338.484375 L 147.769531 274.445312 L 147.289062 274.445312 Z M 148.730469 338.484375 L 149.210938 338.484375 L 149.210938 274.445312 L 148.730469 274.445312 Z M 150.171875 338.484375 L 150.648438 338.484375 L 150.648438 274.445312 L 150.171875 274.445312 Z M 151.609375 338.484375 L 152.089844 338.484375 L 152.089844 274.445312 L 151.609375 274.445312 Z M 153.050781 338.484375 L 153.53125 338.484375 L 153.53125 274.445312 L 153.050781 274.445312 Z M 154.492188 338.484375 L 154.972656 338.484375 L 154.972656 274.445312 L 154.492188 274.445312 Z M 155.929688 338.484375 L 156.410156 338.484375 L 156.410156 274.445312 L 155.929688 274.445312 Z M 157.371094 338.484375 L 157.851562 338.484375 L 157.851562 274.445312 L 157.371094 274.445312 Z M 158.808594 338.484375 L 159.292969 338.484375 L 159.292969 274.445312 L 158.808594 274.445312 Z M 160.25 338.484375 L 160.730469 338.484375 L 160.730469 274.445312 L 160.25 274.445312 Z M 161.691406 338.484375 L 162.171875 338.484375 L 162.171875 274.445312 L 161.691406 274.445312 Z M 163.128906 338.484375 L 163.609375 338.484375 L 163.609375 274.445312 L 163.128906 274.445312 Z M 164.570312 338.484375 L 165.050781 338.484375 L 165.050781 274.445312 L 164.570312 274.445312 Z M 166.011719 338.484375 L 166.492188 338.484375 L 166.492188 274.445312 L 166.011719 274.445312 Z M 167.453125 338.484375 L 167.929688 338.484375 L 167.929688 274.445312 L 167.453125 274.445312 Z M 168.890625 338.484375 L 169.371094 338.484375 L 169.371094 274.445312 L 168.890625 274.445312 Z M 170.332031 338.484375 L 170.8125 338.484375 L 170.8125 274.445312 L 170.332031 274.445312 Z M 171.769531 338.484375 L 172.25 338.484375 L 172.25 274.445312 L 171.769531 274.445312 Z M 173.210938 338.484375 L 173.691406 338.484375 L 173.691406 274.445312 L 173.210938 274.445312 Z M 174.652344 338.484375 L 175.128906 338.484375 L 175.128906 274.445312 L 174.652344 274.445312 Z M 176.089844 338.484375 L 176.570312 338.484375 L 176.570312 274.445312 L 176.089844 274.445312 Z M 177.53125 338.484375 L 178.011719 338.484375 L 178.011719 274.445312 L 177.53125 274.445312 Z M 178.972656 338.484375 L 179.449219 338.484375 L 179.449219 274.445312 L 178.972656 274.445312 Z M 180.410156 338.484375 L 180.890625 338.484375 L 180.890625 274.445312 L 180.410156 274.445312 Z M 181.851562 338.484375 L 182.332031 338.484375 L 182.332031 274.445312 L 181.851562 274.445312 Z M 183.289062 338.484375 L 183.773438 338.484375 L 183.773438 274.445312 L 183.289062 274.445312 Z M 184.730469 338.484375 L 185.210938 338.484375 L 185.210938 274.445312 L 184.730469 274.445312 Z M 186.171875 338.484375 L 186.652344 338.484375 L 186.652344 274.445312 L 186.171875 274.445312 Z M 187.609375 338.484375 L 188.089844 338.484375 L 188.089844 274.445312 L 187.609375 274.445312 Z M 189.050781 338.484375 L 189.53125 338.484375 L 189.53125 274.445312 L 189.050781 274.445312 Z M 190.492188 338.484375 L 190.972656 338.484375 L 190.972656 274.445312 L 190.492188 274.445312 Z M 191.933594 338.484375 L 192.410156 338.484375 L 192.410156 274.445312 L 191.933594 274.445312 Z M 193.371094 338.484375 L 193.851562 338.484375 L 193.851562 274.445312 L 193.371094 274.445312 Z M 194.808594 338.484375 L 195.292969 338.484375 L 195.292969 274.445312 L 194.808594 274.445312 Z M 196.25 338.484375 L 196.730469 338.484375 L 196.730469 274.445312 L 196.25 274.445312 Z M 197.691406 338.484375 L 198.171875 338.484375 L 198.171875 274.445312 L 197.691406 274.445312 Z M 199.132812 338.484375 L 199.609375 338.484375 L 199.609375 274.445312 L 199.132812 274.445312 Z M 200.570312 338.484375 L 201.050781 338.484375 L 201.050781 274.445312 L 200.570312 274.445312 Z M 202.011719 338.484375 L 202.492188 338.484375 L 202.492188 274.445312 L 202.011719 274.445312 Z M 203.449219 338.484375 L 203.929688 338.484375 L 203.929688 274.445312 L 203.449219 274.445312 Z M 204.890625 338.484375 L 205.371094 338.484375 L 205.371094 274.445312 L 204.890625 274.445312 Z M 206.332031 338.484375 L 206.8125 338.484375 L 206.8125 274.445312 L 206.332031 274.445312 Z M 207.769531 338.484375 L 208.25 338.484375 L 208.25 274.445312 L 207.769531 274.445312 Z M 209.210938 338.484375 L 209.691406 338.484375 L 209.691406 274.445312 L 209.210938 274.445312 Z M 210.652344 338.484375 L 211.128906 338.484375 L 211.128906 274.445312 L 210.652344 274.445312 Z M 212.089844 338.484375 L 212.570312 338.484375 L 212.570312 274.445312 L 212.089844 274.445312 Z M 213.53125 338.484375 L 214.011719 338.484375 L 214.011719 274.445312 L 213.53125 274.445312 Z M 214.96875 338.484375 L 215.449219 338.484375 L 215.449219 274.445312 L 214.96875 274.445312 Z M 216.410156 338.484375 L 216.890625 338.484375 L 216.890625 274.445312 L 216.410156 274.445312 Z M 217.851562 338.484375 L 218.328125 338.484375 L 218.328125 274.445312 L 217.851562 274.445312 Z M 219.289062 338.484375 L 219.769531 338.484375 L 219.769531 274.445312 L 219.289062 274.445312 Z M 220.730469 338.484375 L 221.210938 338.484375 L 221.210938 274.445312 L 220.730469 274.445312 Z M 222.171875 338.484375 L 222.652344 338.484375 L 222.652344 274.445312 L 222.171875 274.445312 Z M 223.609375 338.484375 L 224.089844 338.484375 L 224.089844 274.445312 L 223.609375 274.445312 Z M 225.050781 338.484375 L 225.53125 338.484375 L 225.53125 274.445312 L 225.050781 274.445312 Z M 226.488281 338.484375 L 226.96875 338.484375 L 226.96875 274.445312 L 226.488281 274.445312 Z M 227.929688 338.484375 L 228.410156 338.484375 L 228.410156 274.445312 L 227.929688 274.445312 Z M 229.371094 338.484375 L 229.851562 338.484375 L 229.851562 274.445312 L 229.371094 274.445312 Z M 230.8125 338.484375 L 231.289062 338.484375 L 231.289062 274.445312 L 230.8125 274.445312 Z M 232.25 338.484375 L 232.730469 338.484375 L 232.730469 274.445312 L 232.25 274.445312 Z M 233.691406 338.484375 L 234.171875 338.484375 L 234.171875 274.445312 L 233.691406 274.445312 Z M 235.128906 338.484375 L 235.609375 338.484375 L 235.609375 274.445312 L 235.128906 274.445312 Z M 236.570312 338.484375 L 237.050781 338.484375 L 237.050781 274.445312 L 236.570312 274.445312 Z M 238.011719 338.484375 L 238.488281 338.484375 L 238.488281 274.445312 L 238.011719 274.445312 Z M 239.449219 338.484375 L 239.929688 338.484375 L 239.929688 274.445312 L 239.449219 274.445312 Z M 240.890625 338.484375 L 241.371094 338.484375 L 241.371094 274.445312 L 240.890625 274.445312 Z M 242.332031 338.484375 L 242.808594 338.484375 L 242.808594 274.445312 L 242.332031 274.445312 Z M 243.769531 338.484375 L 244.25 338.484375 L 244.25 274.445312 L 243.769531 274.445312 Z M 245.210938 338.484375 L 245.691406 338.484375 L 245.691406 274.445312 L 245.210938 274.445312 Z M 246.648438 338.484375 L 247.132812 338.484375 L 247.132812 274.445312 L 246.648438 274.445312 Z M 248.089844 338.484375 L 248.570312 338.484375 L 248.570312 274.445312 L 248.089844 274.445312 Z M 249.53125 338.484375 L 250.007812 338.484375 L 250.007812 274.445312 L 249.53125 274.445312 Z M 250.96875 338.484375 L 251.449219 338.484375 L 251.449219 274.445312 L 250.96875 274.445312 Z M 252.410156 338.484375 L 252.890625 338.484375 L 252.890625 274.445312 L 252.410156 274.445312 Z M 253.851562 338.484375 L 254.332031 338.484375 L 254.332031 274.445312 L 253.851562 274.445312 Z M 255.289062 338.484375 L 255.769531 338.484375 L 255.769531 274.445312 L 255.289062 274.445312 Z M 256.730469 338.484375 L 257.210938 338.484375 L 257.210938 274.445312 L 256.730469 274.445312 Z M 258.167969 338.484375 L 258.652344 338.484375 L 258.652344 274.445312 L 258.167969 274.445312 Z M 259.609375 338.484375 L 260.089844 338.484375 L 260.089844 274.445312 L 259.609375 274.445312 Z M 261.050781 338.484375 L 261.53125 338.484375 L 261.53125 274.445312 L 261.050781 274.445312 Z M 262.492188 338.484375 L 262.96875 338.484375 L 262.96875 274.445312 L 262.492188 274.445312 Z M 263.929688 338.484375 L 264.410156 338.484375 L 264.410156 274.445312 L 263.929688 274.445312 Z M 265.371094 338.484375 L 265.851562 338.484375 L 265.851562 274.445312 L 265.371094 274.445312 Z M 266.808594 338.484375 L 267.289062 338.484375 L 267.289062 274.445312 L 266.808594 274.445312 Z M 268.25 338.484375 L 268.730469 338.484375 L 268.730469 274.445312 L 268.25 274.445312 Z M 269.691406 338.484375 L 270.167969 338.484375 L 270.167969 274.445312 L 269.691406 274.445312 Z M 271.128906 338.484375 L 271.609375 338.484375 L 271.609375 274.445312 L 271.128906 274.445312 Z M 272.570312 338.484375 L 273.050781 338.484375 L 273.050781 274.445312 L 272.570312 274.445312 Z M 274.011719 338.484375 L 274.488281 338.484375 L 274.488281 274.445312 L 274.011719 274.445312 Z M 275.449219 338.484375 L 275.929688 338.484375 L 275.929688 274.445312 L 275.449219 274.445312 Z M 276.890625 338.484375 L 277.371094 338.484375 L 277.371094 274.445312 L 276.890625 274.445312 Z M 278.328125 338.484375 L 278.8125 338.484375 L 278.8125 274.445312 L 278.328125 274.445312 Z M 279.769531 338.484375 L 280.25 338.484375 L 280.25 274.445312 L 279.769531 274.445312 Z M 281.210938 338.484375 L 281.6875 338.484375 L 281.6875 274.445312 L 281.210938 274.445312 Z M 282.648438 338.484375 L 283.128906 338.484375 L 283.128906 274.445312 L 282.648438 274.445312 Z M 284.089844 338.484375 L 284.570312 338.484375 L 284.570312 274.445312 L 284.089844 274.445312 Z M 285.53125 338.484375 L 286.011719 338.484375 L 286.011719 274.445312 L 285.53125 274.445312 Z M 286.972656 338.484375 L 287.449219 338.484375 L 287.449219 274.445312 L 286.972656 274.445312 Z M 288.410156 338.484375 L 288.890625 338.484375 L 288.890625 274.445312 L 288.410156 274.445312 Z M 289.847656 338.484375 L 290.332031 338.484375 L 290.332031 274.445312 L 289.847656 274.445312 Z M 291.289062 338.484375 L 291.769531 338.484375 L 291.769531 274.445312 L 291.289062 274.445312 Z M 292.730469 338.484375 L 293.210938 338.484375 L 293.210938 274.445312 L 292.730469 274.445312 Z M 294.171875 338.484375 L 294.648438 338.484375 L 294.648438 274.445312 L 294.171875 274.445312 Z M 295.609375 338.484375 L 296.089844 338.484375 L 296.089844 274.445312 L 295.609375 274.445312 Z M 297.050781 338.484375 L 297.53125 338.484375 L 297.53125 274.445312 L 297.050781 274.445312 Z M 298.492188 338.484375 L 298.96875 338.484375 L 298.96875 274.445312 L 298.492188 274.445312 Z M 299.929688 338.484375 L 300.410156 338.484375 L 300.410156 274.445312 L 299.929688 274.445312 Z M 301.371094 338.484375 L 301.851562 338.484375 L 301.851562 274.445312 L 301.371094 274.445312 Z M 303.292969 274.445312 L 303.292969 338.484375 L 302.808594 338.484375 L 302.808594 274.445312 L 303.292969 274.445312 " fill-opacity="1" fill-rule="nonzero"/></g></g><g clip-path="url(#c7db6d61bc)"><path fill="#f9ad30" d="M 186.390625 45.554688 L 192.636719 59.59375 C 192.875 60.132812 193.253906 60.597656 193.730469 60.945312 C 194.210938 61.292969 194.769531 61.507812 195.355469 61.570312 L 210.636719 63.167969 L 199.214844 73.445312 C 198.777344 73.839844 198.449219 74.34375 198.265625 74.90625 C 198.085938 75.46875 198.054688 76.066406 198.175781 76.644531 L 201.375 91.671875 L 188.074219 83.984375 C 187.5625 83.6875 186.984375 83.535156 186.390625 83.535156 C 185.800781 83.535156 185.222656 83.6875 184.710938 83.984375 L 171.40625 91.671875 L 174.609375 76.644531 C 174.730469 76.066406 174.699219 75.46875 174.515625 74.90625 C 174.335938 74.34375 174.007812 73.839844 173.570312 73.445312 L 162.148438 63.167969 L 177.429688 61.570312 C 178.015625 61.507812 178.574219 61.292969 179.054688 60.945312 C 179.53125 60.597656 179.910156 60.132812 180.148438 59.59375 Z M 186.390625 45.554688 " fill-opacity="1" fill-rule="evenodd"/></g><g clip-path="url(#60af0cc9e7)"><path fill="#f9ad30" d="M 234.898438 75.132812 L 238.800781 83.910156 C 238.949219 84.246094 239.1875 84.539062 239.484375 84.753906 C 239.785156 84.972656 240.132812 85.105469 240.5 85.144531 L 250.054688 86.144531 L 242.914062 92.570312 C 242.640625 92.816406 242.433594 93.128906 242.320312 93.480469 C 242.207031 93.832031 242.1875 94.207031 242.265625 94.566406 L 244.265625 103.960938 L 235.949219 99.15625 C 235.628906 98.972656 235.265625 98.875 234.898438 98.875 C 234.527344 98.875 234.167969 98.972656 233.847656 99.15625 L 225.53125 103.960938 L 227.53125 94.566406 C 227.609375 94.207031 227.589844 93.832031 227.476562 93.480469 C 227.359375 93.128906 227.15625 92.816406 226.882812 92.570312 L 219.742188 86.144531 L 229.292969 85.144531 C 229.660156 85.105469 230.011719 84.972656 230.308594 84.753906 C 230.609375 84.539062 230.84375 84.246094 230.996094 83.910156 Z M 234.898438 75.132812 " fill-opacity="1" fill-rule="evenodd"/></g><g clip-path="url(#2ec209ef7f)"><path fill="#f9ad30" d="M 138.183594 75.132812 L 142.085938 83.910156 C 142.234375 84.246094 142.472656 84.539062 142.769531 84.753906 C 143.066406 84.972656 143.417969 85.105469 143.785156 85.144531 L 153.335938 86.144531 L 146.199219 92.570312 C 145.921875 92.816406 145.71875 93.128906 145.605469 93.480469 C 145.492188 93.832031 145.472656 94.207031 145.546875 94.566406 L 147.546875 103.960938 L 139.234375 99.15625 C 138.914062 98.972656 138.550781 98.875 138.183594 98.875 C 137.8125 98.875 137.449219 98.972656 137.132812 99.15625 L 128.816406 103.960938 L 130.816406 94.566406 C 130.894531 94.207031 130.875 93.832031 130.757812 93.480469 C 130.644531 93.128906 130.441406 92.816406 130.167969 92.570312 L 123.027344 86.144531 L 132.578125 85.144531 C 132.945312 85.105469 133.296875 84.972656 133.59375 84.753906 C 133.894531 84.539062 134.128906 84.246094 134.277344 83.910156 Z M 138.183594 75.132812 " fill-opacity="1" fill-rule="evenodd"/></g></svg>