<svg id="Layer_1" data-name="Layer 1" xmlns="http://www.w3.org/2000/svg" viewBox="0 0 259.85 94.05"><defs><style>.cls-1{fill:#233c78;}.cls-2{fill:#f6af32;}.cls-3{fill:none;}.cls-4{fill:#354255;}</style></defs><path class="cls-1" d="M68.79,91.23a8.38,8.38,0,0,1-2.37-.34l-.08,0L12.35,69a.86.86,0,1,1,.64-1.6L67,89.25a6.62,6.62,0,0,0,3.69,0l52.1-21a.86.86,0,1,1,.64,1.6l-52.13,21-.08,0a8.5,8.5,0,0,1-2.38.34" transform="translate(-2.37 -3.41)"/><path class="cls-1" d="M68.79,85.24a8.45,8.45,0,0,1-2.37-.35l-.08,0L12.35,63A.86.86,0,1,1,13,61.42L67,83.25a6.44,6.44,0,0,0,3.69,0l52.1-21a.86.86,0,1,1,.64,1.59l-52.13,21-.08,0a8.52,8.52,0,0,1-2.38.35" transform="translate(-2.37 -3.41)"/><path class="cls-2" d="M64.92,3.81,26.71,21.26a1.23,1.23,0,0,0,0,2.24L64.92,41a4.37,4.37,0,0,0,3.64,0L106.77,23.5a1.23,1.23,0,0,0,0-2.24L68.56,3.81a4.37,4.37,0,0,0-3.64,0" transform="translate(-2.37 -3.41)"/><rect class="cls-3" x="66.42" y="72.89"/><path class="cls-1" d="M92,85.94,71.71,94.12h0l-.11,0-.16.06-.48.17-.28.07-.42.1-.33.05-.39.06-.35,0h-.37l-.62,0h-.09l-.54-.08-.18,0-.07,0-.41-.1-.22,0-.48-.17L66,94.17,10,71.54a7.59,7.59,0,0,1-4.39-9.63,7.44,7.44,0,0,1,9.73-4.24L65.12,77.79l.84.33a7.52,7.52,0,0,0,5.67,0l45-18.18L126,56.15a1.21,1.21,0,0,0,.07-2.25L96,40.34v8c0,7.58-12.67,13.3-29.47,13.3S37.06,55.88,37.06,48.3V42.38L9.12,55a10.18,10.18,0,0,0-.38,19l56,22.62a9.77,9.77,0,0,0,2.07.65l.13,0c.25,0,.49.08.74.11l.22,0a8.85,8.85,0,0,0,.89,0h0a10,10,0,0,0,3.82-.75L123.9,76c2.49-1,2.92-1.91,2.92-4.15l-18,7.28ZM68.79,76.3ZM11.7,54.41l-.17,0Zm-.86.12-.13,0Zm-.87.18-.05,0Z" transform="translate(-2.37 -3.41)"/><path class="cls-2" d="M70.41,42.71a8.8,8.8,0,0,1-7.33,0L39.2,31.81V48.3c0,6.16,12.24,11.16,27.34,11.16s27.33-5,27.33-11.16V32Z" transform="translate(-2.37 -3.41)"/><path class="cls-1" d="M138.47,42.64h2.45l3.84,11.78h-2.21l-1.79-6.27c-.38-1.25-.72-2.59-1.07-3.88h-.07c-.33,1.3-.67,2.63-1.05,3.88l-1.8,6.27h-2.14Zm-1.57,7h5.55v1.63H136.9Z" transform="translate(-2.37 -3.41)"/><path class="cls-1" d="M146.1,42.64h2.15l3.66,6.62,1.22,2.51h.07c-.1-1.22-.27-2.71-.27-4V42.64h2V54.42h-2.15l-3.65-6.63-1.22-2.51h-.07c.1,1.25.26,2.67.26,4v5.16h-2Z" transform="translate(-2.37 -3.41)"/><path class="cls-1" d="M156.74,42.64h2.14l1,6c.19,1.25.39,2.5.58,3.76h.07c.25-1.26.51-2.52.77-3.76l1.44-6h1.82l1.45,6,.77,3.76h.08c.19-1.27.37-2.53.57-3.76l1-6h2l-2.26,11.78h-2.59l-1.46-6.21c-.19-.91-.37-1.81-.52-2.7h-.07c-.16.89-.34,1.79-.53,2.7l-1.43,6.21h-2.54Z" transform="translate(-2.37 -3.41)"/><path class="cls-1" d="M174.62,42.64h2.45l3.83,11.78h-2.21l-1.79-6.27c-.37-1.25-.72-2.59-1.07-3.88h-.07c-.32,1.3-.67,2.63-1,3.88l-1.81,6.27h-2.13Zm-1.57,7h5.54v1.63h-5.54Z" transform="translate(-2.37 -3.41)"/><path class="cls-1" d="M182.25,42.64h4c2.45,0,4.33.86,4.33,3.49s-1.88,3.68-4.33,3.68h-1.88v4.61h-2.09Zm3.75,5.5c1.61,0,2.49-.67,2.49-2s-.88-1.82-2.49-1.82h-1.66v3.83Zm-.18,1.11L187.34,48,191,54.42h-2.34Z" transform="translate(-2.37 -3.41)"/><path class="cls-1" d="M195.1,42.64h2.45l3.84,11.78h-2.21l-1.8-6.27c-.37-1.25-.72-2.59-1.06-3.88h-.07c-.33,1.3-.67,2.63-1.05,3.88l-1.81,6.27h-2.13Zm-1.57,7h5.55v1.63h-5.55Z" transform="translate(-2.37 -3.41)"/><path class="cls-2" d="M206.33,42.64h3.77c2.42,0,4.2.74,4.2,2.9a2.65,2.65,0,0,1-1.64,2.55v.07a2.7,2.7,0,0,1,2.26,2.8c0,2.35-1.93,3.46-4.52,3.46h-4.07Zm3.58,4.86c1.64,0,2.34-.64,2.34-1.66s-.77-1.57-2.3-1.57h-1.53V47.5Zm.27,5.29c1.73,0,2.7-.62,2.7-1.95s-.94-1.78-2.7-1.78h-1.76v3.73Z" transform="translate(-2.37 -3.41)"/><path class="cls-2" d="M217.08,42.64h7.08V44.4h-5v3h4.23v1.76h-4.23v3.49h5.17v1.76h-7.26Z" transform="translate(-2.37 -3.41)"/><path class="cls-2" d="M226.14,48.57c0-3.86,2.44-6.15,5.58-6.15a4.84,4.84,0,0,1,3.55,1.49l-1.11,1.35a3.17,3.17,0,0,0-2.38-1c-2.09,0-3.49,1.62-3.49,4.26s1.24,4.32,3.61,4.32a2.67,2.67,0,0,0,1.68-.52V49.75h-2.22V48h4.09v5.19a5.33,5.33,0,0,1-3.76,1.4C228.51,54.63,226.14,52.46,226.14,48.57Z" transform="translate(-2.37 -3.41)"/><path class="cls-2" d="M238,49.25V42.64h2.09v6.77c0,2.56,1,3.41,2.38,3.41s2.43-.85,2.43-3.41V42.64h2v6.61c0,3.87-1.71,5.38-4.44,5.38S238,53.12,238,49.25Z" transform="translate(-2.37 -3.41)"/><path class="cls-2" d="M249.86,42.64h2.36l2.08,5.75c.26.75.5,1.54.76,2.32h.07c.26-.78.48-1.57.74-2.32l2-5.75h2.36V54.42h-1.92V49c0-1.09.17-2.66.27-3.75h-.07L257.6,48l-1.94,5.29h-1.24L252.48,48l-.94-2.74h-.07c.1,1.09.27,2.66.27,3.75v5.39h-1.88Z" transform="translate(-2.37 -3.41)"/><path class="cls-4" d="M134.79,60.42h1.28v7.2h-1.28Z" transform="translate(-2.37 -3.41)"/><path class="cls-4" d="M137.89,60.42h1.92c2.2,0,3.51,1.19,3.51,3.57s-1.31,3.63-3.44,3.63h-2Zm1.84,6.16c1.44,0,2.28-.82,2.28-2.59s-.84-2.54-2.28-2.54h-.56v5.13Z" transform="translate(-2.37 -3.41)"/><path class="cls-4" d="M144.77,60.42h4.33v1.07H146v1.85h2.59v1.07H146v2.13h3.17v1.08h-4.44Z" transform="translate(-2.37 -3.41)"/><path class="cls-4" d="M152.09,60.42h1.5l2.34,7.2h-1.35l-1.09-3.83c-.23-.76-.44-1.59-.65-2.38h-.05c-.2.8-.41,1.62-.64,2.38l-1.1,3.83h-1.3Zm-1,4.24h3.39v1h-3.39Z" transform="translate(-2.37 -3.41)"/><path class="cls-4" d="M156.76,60.42H158v6.12h3v1.08h-4.26Z" transform="translate(-2.37 -3.41)"/><path class="cls-4" d="M164.1,64c0-2.35,1.49-3.75,3.41-3.75a3,3,0,0,1,2.17.91L169,62a2,2,0,0,0-1.45-.62c-1.28,0-2.14,1-2.14,2.6s.76,2.64,2.21,2.64a1.61,1.61,0,0,0,1-.32V64.77h-1.35v-1h2.5v3.17a3.26,3.26,0,0,1-2.3.86C165.55,67.75,164.1,66.42,164.1,64Z" transform="translate(-2.37 -3.41)"/><path class="cls-4" d="M171.39,60.42h1.27v7.2h-1.27Z" transform="translate(-2.37 -3.41)"/><path class="cls-4" d="M174.49,60.42h2.42c1.5,0,2.65.53,2.65,2.13s-1.15,2.25-2.65,2.25h-1.15v2.82h-1.27Zm2.29,3.36c1,0,1.52-.41,1.52-1.23s-.53-1.11-1.52-1.11h-1v2.34Zm-.11.68.93-.76,2.24,3.92h-1.43Z" transform="translate(-2.37 -3.41)"/><path class="cls-4" d="M181,60.42h1.28v6.12h3v1.08H181Z" transform="translate(-2.37 -3.41)"/><path class="cls-4" d="M185.31,62.75a1.5,1.5,0,0,0,.91-1.39l-.08-.84.49.65a.75.75,0,0,1-.51.21.68.68,0,0,1-.72-.68.7.7,0,0,1,.72-.76c.56,0,.87.44.87,1.22a2.32,2.32,0,0,1-1.37,2.16Z" transform="translate(-2.37 -3.41)"/><path class="cls-4" d="M188,66.69l.74-.87a2.85,2.85,0,0,0,1.88.82c.81,0,1.25-.37,1.25-.93s-.46-.78-1.11-1.06l-1-.43a2,2,0,0,1-1.45-1.9,2.18,2.18,0,0,1,2.41-2,3.16,3.16,0,0,1,2.22.92l-.65.81a2.33,2.33,0,0,0-1.57-.62c-.68,0-1.12.32-1.12.84s.54.78,1.14,1l1,.41a2,2,0,0,1,1.46,1.94c0,1.16-1,2.14-2.59,2.14A3.71,3.71,0,0,1,188,66.69Z" transform="translate(-2.37 -3.41)"/><path class="cls-4" d="M196.71,60.42H198v2.89h2.91V60.42h1.28v7.2h-1.28v-3.2H198v3.2h-1.27Z" transform="translate(-2.37 -3.41)"/><path class="cls-4" d="M204,60.42h1.28v7.2H204Z" transform="translate(-2.37 -3.41)"/><path class="cls-4" d="M206.72,64a3.41,3.41,0,0,1,3.41-3.75,3,3,0,0,1,2.17.91l-.68.82a1.94,1.94,0,0,0-1.45-.62c-1.28,0-2.13,1-2.13,2.6s.76,2.64,2.2,2.64a1.64,1.64,0,0,0,1-.32V64.77h-1.36v-1h2.5v3.17a3.25,3.25,0,0,1-2.3.86C208.17,67.75,206.72,66.42,206.72,64Z" transform="translate(-2.37 -3.41)"/><path class="cls-4" d="M214,60.42h1.28v2.89h2.91V60.42h1.27v7.2H218.2v-3.2h-2.91v3.2H214Z" transform="translate(-2.37 -3.41)"/><path class="cls-4" d="M223,66.69l.74-.87a2.85,2.85,0,0,0,1.88.82c.81,0,1.25-.37,1.25-.93s-.46-.78-1.11-1.06l-1-.43a2,2,0,0,1-1.45-1.9,2.18,2.18,0,0,1,2.41-2,3.16,3.16,0,0,1,2.22.92l-.65.81a2.33,2.33,0,0,0-1.57-.62c-.68,0-1.12.32-1.12.84s.55.78,1.14,1l1,.41a2,2,0,0,1,1.46,1.94c0,1.16-1,2.14-2.59,2.14A3.71,3.71,0,0,1,223,66.69Z" transform="translate(-2.37 -3.41)"/><path class="cls-4" d="M229.12,64c0-2.35,1.47-3.75,3.3-3.75a2.85,2.85,0,0,1,2.07.91l-.68.82a1.87,1.87,0,0,0-1.37-.62c-1.17,0-2,1-2,2.6s.78,2.64,2,2.64A2.05,2.05,0,0,0,234,65.9l.68.8a2.86,2.86,0,0,1-2.27,1C230.56,67.75,229.12,66.42,229.12,64Z" transform="translate(-2.37 -3.41)"/><path class="cls-4" d="M235.83,60.42h1.28v2.89H240V60.42h1.28v7.2H240v-3.2h-2.91v3.2h-1.28Z" transform="translate(-2.37 -3.41)"/><path class="cls-4" d="M242.75,64c0-2.33,1.3-3.7,3.17-3.7s3.18,1.38,3.18,3.7-1.3,3.76-3.18,3.76S242.75,66.32,242.75,64Zm5,0c0-1.62-.73-2.59-1.86-2.59s-1.86,1-1.86,2.59.73,2.65,1.86,2.65S247.78,65.6,247.78,64Z" transform="translate(-2.37 -3.41)"/><path class="cls-4" d="M250.16,64c0-2.33,1.3-3.7,3.18-3.7s3.17,1.38,3.17,3.7-1.3,3.76-3.17,3.76S250.16,66.32,250.16,64Zm5,0c0-1.62-.73-2.59-1.86-2.59s-1.87,1-1.87,2.59.74,2.65,1.87,2.65S255.2,65.6,255.2,64Z" transform="translate(-2.37 -3.41)"/><path class="cls-4" d="M258,60.42h1.27v6.12h3v1.08H258Z" transform="translate(-2.37 -3.41)"/></svg>