<?xml version="1.0" encoding="utf-8"?>
<!-- Generator: Adobe Illustrator 28.2.0, SVG Export Plug-In . SVG Version: 6.00 Build 0)  -->
<svg version="1.1" id="Layer_1" xmlns="http://www.w3.org/2000/svg" xmlns:xlink="http://www.w3.org/1999/xlink" x="0px" y="0px"
	 viewBox="0 0 132 115" style="enable-background:new 0 0 132 115;" xml:space="preserve">
<style type="text/css">
	.st0{fill:#374151;}
	.st1{fill:#FFFFFF;}
</style>
<g>
	<g>
		<g>
			<path class="st0" d="M94.99,83.78l-11.52,4.66l-13.86,5.6c-0.01,0-0.01,0-0.02,0.01l-0.07,0.03c-0.04,0.01-0.08,0.02-0.11,0.04
				c-0.11,0.04-0.22,0.08-0.33,0.11c-0.06,0.02-0.13,0.03-0.19,0.05c-0.1,0.02-0.19,0.05-0.29,0.07c-0.08,0.01-0.15,0.03-0.22,0.04
				c-0.09,0.01-0.17,0.03-0.26,0.03c-0.08,0.01-0.16,0.01-0.24,0.02c-0.08,0-0.17,0.01-0.25,0.01h0c-0.14,0-0.28-0.01-0.42-0.02
				c-0.02,0-0.04,0-0.06,0c-0.12-0.01-0.25-0.03-0.37-0.05c-0.04-0.01-0.08-0.01-0.12-0.02c-0.02,0-0.03-0.01-0.05-0.01
				c-0.09-0.02-0.19-0.04-0.28-0.07c-0.05-0.01-0.1-0.02-0.15-0.04c-0.11-0.03-0.22-0.07-0.33-0.11c-0.04-0.01-0.08-0.02-0.11-0.04
				L27.37,78.59c-2.6-1.05-4-3.98-3-6.59c1.02-2.66,4.02-3.96,6.65-2.9L65.1,82.86l0.57,0.23c1.25,0.5,2.64,0.5,3.89,0l30.8-12.45
				l6.42-2.59c0.76-0.3,0.69-1.19,0.05-1.54L71.31,50.5c-2.35-1.06-5.04-1.06-7.39,0L26.78,67.25c-1.84,0.65-3.35,2.06-4.11,3.95
				c-1.44,3.56,0.29,7.63,3.85,9.07l38.32,15.48c0.45,0.2,0.93,0.34,1.42,0.44c0.03,0.01,0.06,0.01,0.09,0.02
				c0.17,0.03,0.34,0.06,0.51,0.07c0.05,0.01,0.1,0.01,0.15,0.02c0.2,0.02,0.4,0.03,0.61,0.03h0h0c0.89,0,1.77-0.17,2.61-0.51
				l35.11-14.18c1.7-0.69,2-1.3,2-2.84L94.99,83.78z M67.62,81.84L67.62,81.84L67.62,81.84L67.62,81.84L67.62,81.84z M27.36,67.07
				c-0.01,0-0.03,0.01-0.04,0.01C27.33,67.08,27.34,67.07,27.36,67.07 M28.54,66.86c-0.04,0-0.08,0.01-0.12,0.01
				C28.46,66.87,28.5,66.87,28.54,66.86 M27.95,66.94c-0.03,0-0.06,0.01-0.09,0.02C27.89,66.95,27.92,66.95,27.95,66.94"/>
			<path class="st0" d="M67.61,92.06c-0.54,0-1.08-0.08-1.62-0.24c-0.02-0.01-0.04-0.01-0.05-0.02L28.98,76.85
				c-0.3-0.12-0.45-0.47-0.32-0.77c0.12-0.3,0.47-0.45,0.77-0.32L66.35,90.7c0.85,0.24,1.68,0.24,2.53,0l35.66-14.38
				c0.3-0.12,0.64,0.02,0.77,0.33c0.12,0.3-0.02,0.64-0.33,0.77L69.29,91.81c-0.02,0.01-0.04,0.01-0.05,0.02
				C68.7,91.98,68.15,92.06,67.61,92.06"/>
			<path class="st0" d="M67.61,87.96c-0.54,0-1.08-0.08-1.62-0.24c-0.02,0-0.04-0.01-0.05-0.02L28.98,72.75
				c-0.3-0.12-0.45-0.46-0.32-0.77c0.12-0.3,0.47-0.45,0.77-0.33L66.35,86.6c0.85,0.24,1.68,0.25,2.53,0l35.66-14.38
				c0.3-0.12,0.64,0.02,0.77,0.33c0.12,0.3-0.02,0.64-0.33,0.77L69.29,87.7c-0.02,0.01-0.04,0.01-0.05,0.02
				C68.7,87.88,68.16,87.96,67.61,87.96"/>
			<path class="st0" d="M64.73,31.63L35.65,44.91c-0.73,0.33-0.73,1.37,0,1.71L64.73,59.9c0.88,0.4,1.89,0.4,2.77,0l29.08-13.28
				c0.73-0.33,0.73-1.37,0-1.71L67.5,31.63C66.62,31.23,65.61,31.23,64.73,31.63"/>
			<path class="st1" d="M65.96,75.62c-12.79,0-22.43-4.35-22.43-10.12V50.4L64,59.75c0.67,0.3,1.38,0.46,2.11,0.46
				s1.44-0.16,2.11-0.46l20.17-9.21v14.95C88.39,71.26,78.75,75.62,65.96,75.62"/>
			<path class="st0" d="M68.9,61.24c-0.88,0.4-1.82,0.61-2.79,0.61c-0.97,0-1.91-0.2-2.79-0.61l-18.17-8.3v12.55
				c0,4.69,9.31,8.49,20.8,8.49c11.49,0,20.8-3.8,20.8-8.49V53.08L68.9,61.24z"/>
		</g>
		<g>
			<path class="st0" d="M25.24,25.49c-2.45,2.07-3,5.44-3,5.44s3.41,0.02,5.86-2.05c2.45-2.07,3-5.44,3-5.44
				S27.69,23.42,25.24,25.49"/>
			<path class="st0" d="M38.88,105.6c1.94,2.69,1.94,5.78,1.92,5.79c0.01,0.04-4.23-1.32-6.04-4.27c-1.81-2.92-0.77-5.83-0.8-5.82
				C33.97,101.32,36.95,102.94,38.88,105.6"/>
			<path class="st0" d="M35.55,114.53c3.78-0.5,5.29-3.28,5.29-3.26c-0.04,0.01-4.03-1.3-7.51-1.02c-3.52,0.3-5.66,2.39-5.66,2.42
				C27.61,112.68,31.72,115.05,35.55,114.53"/>
			<path class="st0" d="M31.58,102.06c1.29,2.92,0.68,5.89,0.65,5.9c0,0.04-3.69-1.97-4.84-5.13c-1.16-3.12,0.39-5.76,0.37-5.76
				C27.76,97.1,30.29,99.17,31.58,102.06"/>
			<path class="st0" d="M26.68,110.12c3.65,0.15,5.6-2.29,5.6-2.27c-0.04,0-3.5-1.92-6.86-2.24c-3.39-0.31-5.84,1.36-5.85,1.38
				C19.53,107,22.99,109.98,26.68,110.12"/>
			<path class="st0" d="M25.33,97.41c0.68,3.04-0.48,5.81-0.51,5.81c0,0.04-3.13-2.53-3.66-5.78c-0.53-3.22,1.44-5.52,1.42-5.52
				C22.59,91.95,24.65,94.39,25.33,97.41"/>
			<path class="st0" d="M19.12,104.37c3.46,0.76,5.78-1.27,5.77-1.24c-0.04,0-2.96-2.45-6.14-3.33c-3.21-0.88-5.88,0.31-5.89,0.33
				C12.83,100.13,15.63,103.61,19.12,104.37"/>
			<path class="st0" d="M20.19,91.82c0.11,3.07-1.53,5.55-1.55,5.55c-0.01,0.04-2.56-2.99-2.49-6.24c0.06-3.22,2.37-5.11,2.35-5.12
				C18.49,86.04,20.07,88.78,20.19,91.82"/>
			<path class="st0" d="M12.91,97.5c3.21,1.34,5.81-0.23,5.8-0.21c-0.03-0.01-2.41-2.88-5.34-4.29c-2.96-1.41-5.78-0.72-5.79-0.7
				C7.56,92.29,9.67,96.16,12.91,97.5"/>
			<path class="st0" d="M16.17,85.5c-0.43,3.01-2.46,5.13-2.48,5.13c-0.01,0.04-1.96-3.35-1.34-6.52c0.61-3.14,3.19-4.58,3.17-4.58
				C15.51,79.55,16.59,82.51,16.17,85.5"/>
			<path class="st0" d="M8.09,89.75c2.9,1.86,5.7,0.79,5.69,0.81c-0.03-0.01-1.83-3.22-4.46-5.12c-2.65-1.9-5.52-1.73-5.54-1.71
				C3.75,83.72,5.16,87.88,8.09,89.75"/>
			<path class="st0" d="M13.33,78.61c-0.93,2.87-3.28,4.58-3.29,4.57c-0.02,0.03-1.35-3.62-0.22-6.61c1.12-2.97,3.89-3.92,3.87-3.93
				C13.67,72.67,14.24,75.76,13.33,78.61"/>
			<path class="st0" d="M4.71,81.34c2.52,2.34,5.44,1.78,5.43,1.8c-0.03-0.02-1.25-3.47-3.5-5.79c-2.28-2.33-5.12-2.68-5.13-2.66
				C1.47,74.66,2.16,78.99,4.71,81.34"/>
			<path class="st0" d="M11.7,71.35c-1.38,2.65-3.97,3.91-3.99,3.9c-0.02,0.03-0.72-3.79,0.89-6.54c1.59-2.72,4.46-3.17,4.44-3.18
				C13.02,65.55,13.06,68.71,11.7,71.35"/>
			<path class="st0" d="M2.8,72.49c2.08,2.74,5.03,2.72,5.01,2.74C7.79,75.2,7.17,71.6,5.36,68.9c-1.84-2.71-4.56-3.56-4.58-3.54
				C0.75,65.33,0.7,69.72,2.8,72.49"/>
			<path class="st0" d="M11.31,63.9c-1.8,2.37-4.54,3.15-4.56,3.13c-0.03,0.03-0.07-3.87,1.97-6.3c2.02-2.41,4.91-2.34,4.89-2.36
				C13.6,58.4,13.09,61.54,11.31,63.9"/>
			<path class="st0" d="M2.42,63.43c1.57,3.08,4.47,3.59,4.45,3.6C6.84,67,6.84,63.34,5.52,60.34C4.19,57.33,1.67,56,1.65,56.01
				C1.63,55.98,0.82,60.32,2.42,63.43"/>
			<path class="st0" d="M12.22,56.45c-2.18,2.03-4.99,2.31-5,2.29c-0.03,0.02,0.6-3.85,3.03-5.9c2.41-2.04,5.23-1.46,5.22-1.48
				C15.44,51.38,14.37,54.42,12.22,56.45"/>
			<path class="st0" d="M3.6,54.39c1,3.34,3.75,4.36,3.72,4.37c-0.01-0.03,0.61-3.66-0.14-6.88c-0.77-3.23-2.98-5.01-3-5.01
				C4.16,46.84,2.58,51.02,3.6,54.39"/>
			<path class="st0" d="M14.45,49.18c-2.51,1.65-5.31,1.42-5.32,1.4c-0.04,0.02,1.28-3.73,4.07-5.36c2.76-1.62,5.42-0.54,5.41-0.56
				C18.58,44.67,16.93,47.54,14.45,49.18"/>
			<path class="st0" d="M6.39,45.59c0.36,3.51,2.87,5.02,2.84,5.02c-0.01-0.03,1.26-3.54,1.15-6.9c-0.13-3.38-1.95-5.55-1.97-5.55
				C8.39,38.13,6.01,42.05,6.39,45.59"/>
			<path class="st0" d="M18.04,42.29c-2.8,1.21-5.5,0.49-5.51,0.47c-0.04,0.01,1.99-3.51,5.09-4.67c3.06-1.15,5.48,0.38,5.47,0.36
				C23.05,38.46,20.81,41.08,18.04,42.29"/>
			<path class="st0" d="M10.83,37.28c-0.35,3.59,1.83,5.54,1.8,5.54c-0.01-0.03,1.93-3.33,2.52-6.73c0.57-3.42-0.75-5.93-0.78-5.93
				C14.35,30.11,11.16,33.65,10.83,37.28"/>
			<path class="st0" d="M23.04,35.96c-3.04,0.75-5.55-0.45-5.56-0.47c-0.05,0.01,2.71-3.2,6.07-3.85c3.32-0.65,5.4,1.31,5.39,1.29
				C28.9,32.93,26.04,35.21,23.04,35.96"/>
			<path class="st0" d="M16.96,29.66c-1.13,3.57,0.62,5.9,0.59,5.9c0-0.03,2.61-3.03,3.97-6.37c1.35-3.37,0.61-6.14,0.58-6.14
				C22.1,23.01,18.08,26.06,16.96,29.66"/>
			<path class="st0" d="M52.81,112.79l-0.03-0.66c-5.49,0.29-10.93-0.53-16.15-2.42c-5.09-1.85-9.76-4.64-13.89-8.3
				C14.17,93.82,8.87,83.25,7.79,71.64c-0.88-9.5,0.07-17.9,2.83-24.97c2.96-7.59,7.94-13.43,14.81-17.36l-0.33-0.58
				c-7,4-12.08,9.96-15.1,17.69C7.21,53.59,6.24,62.1,7.13,71.7c1.09,11.77,6.48,22.5,15.16,30.2c4.19,3.71,8.93,6.55,14.1,8.42
				C41.7,112.25,47.22,113.08,52.81,112.79"/>
		</g>
		<g>
			<path class="st0" d="M106.99,25.49c2.45,2.07,3,5.44,3,5.44s-3.41,0.02-5.86-2.05c-2.45-2.07-3-5.44-3-5.44
				S104.54,23.42,106.99,25.49"/>
			<path class="st0" d="M93.35,105.6c-1.94,2.69-1.94,5.78-1.92,5.79c-0.01,0.04,4.23-1.32,6.04-4.27c1.81-2.92,0.77-5.83,0.8-5.82
				C98.26,101.32,95.28,102.94,93.35,105.6"/>
			<path class="st0" d="M96.68,114.53c-3.78-0.5-5.29-3.28-5.29-3.26c0.04,0.01,4.03-1.3,7.51-1.02c3.52,0.3,5.66,2.39,5.66,2.42
				C104.62,112.68,100.51,115.05,96.68,114.53"/>
			<path class="st0" d="M100.65,102.06c-1.29,2.92-0.68,5.89-0.65,5.9c0,0.04,3.69-1.97,4.84-5.13c1.16-3.12-0.39-5.76-0.37-5.76
				C104.47,97.1,101.94,99.17,100.65,102.06"/>
			<path class="st0" d="M105.55,110.12c-3.65,0.15-5.6-2.29-5.6-2.27c0.04,0,3.5-1.92,6.86-2.24c3.39-0.31,5.84,1.36,5.85,1.38
				C112.7,107,109.24,109.98,105.55,110.12"/>
			<path class="st0" d="M106.9,97.41c-0.68,3.04,0.48,5.81,0.51,5.81c0,0.04,3.13-2.53,3.66-5.78c0.53-3.22-1.44-5.52-1.42-5.52
				C109.64,91.95,107.58,94.39,106.9,97.41"/>
			<path class="st0" d="M113.11,104.37c-3.46,0.76-5.78-1.27-5.77-1.24c0.04,0,2.96-2.45,6.14-3.33c3.21-0.88,5.88,0.31,5.89,0.33
				C119.4,100.13,116.6,103.61,113.11,104.37"/>
			<path class="st0" d="M112.04,91.82c-0.11,3.07,1.53,5.55,1.55,5.55c0.01,0.04,2.56-2.99,2.49-6.24
				c-0.06-3.22-2.37-5.11-2.35-5.12C113.74,86.04,112.16,88.78,112.04,91.82"/>
			<path class="st0" d="M119.32,97.5c-3.21,1.34-5.81-0.23-5.8-0.21c0.03-0.01,2.41-2.88,5.34-4.29c2.96-1.41,5.78-0.72,5.79-0.7
				C124.67,92.29,122.56,96.16,119.32,97.5"/>
			<path class="st0" d="M116.06,85.5c0.43,3.01,2.46,5.13,2.48,5.13c0.01,0.04,1.96-3.35,1.34-6.52c-0.61-3.14-3.19-4.58-3.17-4.58
				C116.72,79.55,115.64,82.51,116.06,85.5"/>
			<path class="st0" d="M124.14,89.75c-2.9,1.86-5.7,0.79-5.69,0.81c0.03-0.01,1.83-3.22,4.46-5.12c2.65-1.9,5.52-1.73,5.54-1.71
				C128.47,83.72,127.07,87.88,124.14,89.75"/>
			<path class="st0" d="M118.9,78.61c0.93,2.87,3.28,4.58,3.29,4.57c0.02,0.03,1.35-3.62,0.22-6.61c-1.12-2.97-3.89-3.92-3.87-3.93
				C118.56,72.67,117.99,75.76,118.9,78.61"/>
			<path class="st0" d="M127.52,81.34c-2.52,2.34-5.44,1.78-5.43,1.8c0.03-0.02,1.25-3.47,3.5-5.79c2.28-2.33,5.12-2.68,5.13-2.66
				C130.76,74.66,130.07,78.99,127.52,81.34"/>
			<path class="st0" d="M120.53,71.35c1.38,2.65,3.97,3.91,3.99,3.9c0.02,0.03,0.72-3.79-0.89-6.54c-1.59-2.72-4.46-3.17-4.44-3.18
				C119.21,65.55,119.17,68.71,120.53,71.35"/>
			<path class="st0" d="M129.43,72.49c-2.08,2.74-5.03,2.72-5.01,2.74c0.02-0.02,0.64-3.63,2.46-6.32c1.84-2.71,4.56-3.56,4.58-3.54
				C131.48,65.33,131.53,69.72,129.43,72.49"/>
			<path class="st0" d="M120.92,63.9c1.8,2.37,4.54,3.15,4.56,3.13c0.03,0.03,0.07-3.87-1.97-6.3c-2.02-2.41-4.91-2.34-4.89-2.36
				C118.63,58.4,119.14,61.54,120.92,63.9"/>
			<path class="st0" d="M129.81,63.43c-1.57,3.08-4.47,3.59-4.45,3.6c0.02-0.02,0.02-3.69,1.34-6.68c1.34-3.01,3.85-4.34,3.87-4.33
				C130.6,55.98,131.41,60.32,129.81,63.43"/>
			<path class="st0" d="M120.01,56.45c2.18,2.03,4.99,2.31,5,2.29c0.03,0.02-0.6-3.85-3.03-5.9c-2.41-2.04-5.23-1.46-5.22-1.48
				C116.79,51.38,117.86,54.42,120.01,56.45"/>
			<path class="st0" d="M128.63,54.39c-1,3.34-3.75,4.36-3.72,4.37c0.01-0.03-0.61-3.66,0.14-6.88c0.77-3.23,2.98-5.01,3-5.01
				C128.07,46.84,129.65,51.02,128.63,54.39"/>
			<path class="st0" d="M117.78,49.18c2.51,1.65,5.31,1.42,5.32,1.4c0.04,0.02-1.28-3.73-4.07-5.36c-2.76-1.62-5.42-0.54-5.41-0.56
				C113.65,44.67,115.3,47.54,117.78,49.18"/>
			<path class="st0" d="M125.84,45.59c-0.36,3.51-2.87,5.02-2.84,5.02c0.01-0.03-1.26-3.54-1.15-6.9c0.13-3.38,1.95-5.55,1.97-5.55
				C123.84,38.13,126.22,42.05,125.84,45.59"/>
			<path class="st0" d="M114.19,42.29c2.8,1.21,5.5,0.49,5.51,0.47c0.04,0.01-1.99-3.51-5.09-4.67c-3.06-1.15-5.48,0.38-5.47,0.36
				C109.18,38.46,111.42,41.08,114.19,42.29"/>
			<path class="st0" d="M121.4,37.28c0.35,3.59-1.83,5.54-1.8,5.54c0.01-0.03-1.93-3.33-2.52-6.73c-0.57-3.42,0.75-5.93,0.78-5.93
				C117.88,30.11,121.07,33.65,121.4,37.28"/>
			<path class="st0" d="M109.19,35.96c3.04,0.75,5.55-0.45,5.56-0.47c0.05,0.01-2.71-3.2-6.07-3.85c-3.32-0.65-5.4,1.31-5.39,1.29
				C103.33,32.93,106.19,35.21,109.19,35.96"/>
			<path class="st0" d="M115.27,29.66c1.13,3.57-0.62,5.9-0.59,5.9c0-0.03-2.61-3.03-3.97-6.37c-1.35-3.37-0.61-6.14-0.58-6.14
				C110.13,23.01,114.15,26.06,115.27,29.66"/>
			<path class="st0" d="M79.42,112.79l0.03-0.66c5.49,0.29,10.93-0.53,16.15-2.42c5.09-1.85,9.76-4.64,13.89-8.3
				c8.56-7.59,13.87-18.16,14.94-29.76c0.88-9.5-0.07-17.9-2.83-24.97c-2.96-7.59-7.94-13.43-14.81-17.36l0.33-0.58
				c7,4,12.08,9.96,15.1,17.69c2.79,7.17,3.76,15.67,2.87,25.28c-1.09,11.77-6.48,22.5-15.16,30.2c-4.19,3.71-8.93,6.55-14.1,8.42
				C90.53,112.25,85.01,113.08,79.42,112.79"/>
		</g>
		<g>
			<polygon class="st0" points="66.83,0.7 69.66,6.42 75.97,7.34 71.4,11.79 72.48,18.08 66.83,15.11 61.19,18.08 62.27,11.79 
				57.7,7.34 64.01,6.42 			"/>
			<polygon class="st0" points="45.09,11.35 47.17,15.57 51.84,16.25 48.46,19.54 49.26,24.19 45.09,21.99 40.92,24.19 41.72,19.54 
				38.34,16.25 43,15.57 			"/>
			<polygon class="st0" points="88.58,11.35 90.66,15.57 95.33,16.25 91.95,19.54 92.75,24.19 88.58,21.99 84.41,24.19 85.2,19.54 
				81.83,16.25 86.49,15.57 			"/>
		</g>
	</g>
</g>
</svg>
